<svg xmlns="http://www.w3.org/2000/svg" width="100" height="18" viewBox="0 0 100 18" fill="none">
<g clip-path="url(#clip0_1401_13313)">
<g clip-path="url(#clip1_1401_13313)">
<path d="M14.0174 0.511719H2.56431C1.15239 0.511719 0.0078125 1.6563 0.0078125 3.06821V14.5213C0.0078125 15.9332 1.15239 17.0778 2.56431 17.0778H14.0174C15.4293 17.0778 16.5739 15.9332 16.5739 14.5213V3.06821C16.5739 1.6563 15.4293 0.511719 14.0174 0.511719Z" fill="#00B67A"/>
<path fill-rule="evenodd" clip-rule="evenodd" d="M9.64396 6.80492H14.0235L10.481 9.51206L8.29119 11.1834L10.7853 10.5033L10.489 9.53813L11.8337 13.8907L8.29119 11.1834L4.74446 13.8907L6.10144 9.51206L2.55469 6.80047L6.93423 6.80492L8.29119 2.42188L9.64396 6.80492Z" fill="white"/>
<path d="M34.8729 0.511719H23.4198C22.0079 0.511719 20.8633 1.6563 20.8633 3.06821V14.5213C20.8633 15.9332 22.0079 17.0778 23.4198 17.0778H34.8729C36.2848 17.0778 37.4294 15.9332 37.4294 14.5213V3.06821C37.4294 1.6563 36.2848 0.511719 34.8729 0.511719Z" fill="#00B67A"/>
<path fill-rule="evenodd" clip-rule="evenodd" d="M30.4995 6.80492H34.879L31.3366 9.51206L29.1467 11.1834L31.6409 10.5033L31.3445 9.53813L32.6893 13.8907L29.1467 11.1834L25.5999 13.8907L26.9569 9.51206L23.4102 6.80047L27.7897 6.80492L29.1467 2.42188L30.4995 6.80492Z" fill="white"/>
<path d="M55.7244 0.511719H44.2713C42.8594 0.511719 41.7148 1.6563 41.7148 3.06821V14.5213C41.7148 15.9332 42.8594 17.0778 44.2713 17.0778H55.7244C57.1364 17.0778 58.2809 15.9332 58.2809 14.5213V3.06821C58.2809 1.6563 57.1364 0.511719 55.7244 0.511719Z" fill="#00B67A"/>
<path fill-rule="evenodd" clip-rule="evenodd" d="M51.3549 6.80492H55.7344L52.1919 9.51206L50.0022 11.1834L52.4963 10.5033L52.1999 9.53777L53.5447 13.8907L50.0022 11.1834L46.4554 13.8907L47.8124 9.51206L44.2656 6.80047L48.6452 6.80492L50.0022 2.42188L51.3549 6.80492Z" fill="white"/>
<path d="M76.5799 0.511719H65.1268C63.7149 0.511719 62.5703 1.6563 62.5703 3.06821V14.5213C62.5703 15.9332 63.7149 17.0778 65.1268 17.0778H76.5799C77.9918 17.0778 79.1364 15.9332 79.1364 14.5213V3.06821C79.1364 1.6563 77.9918 0.511719 76.5799 0.511719Z" fill="#00B67A"/>
<path fill-rule="evenodd" clip-rule="evenodd" d="M72.2107 6.80492H76.59L73.0477 9.51206L70.8576 11.1834L73.3519 10.5033L73.0556 9.53813L74.4003 13.8907L70.8576 11.1834L67.3109 13.8907L68.6679 9.51206L65.1211 6.80047L69.5006 6.80492L70.8576 2.42188L72.2107 6.80492Z" fill="white"/>
<path d="M97.4354 0.511719H85.9823C84.5704 0.511719 83.4258 1.6563 83.4258 3.06821V14.5213C83.4258 15.9332 84.5704 17.0778 85.9823 17.0778H97.4354C98.8473 17.0778 99.9919 15.9332 99.9919 14.5213V3.06821C99.9919 1.6563 98.8473 0.511719 97.4354 0.511719Z" fill="#00B67A"/>
<path fill-rule="evenodd" clip-rule="evenodd" d="M93.0615 6.80492H97.4415L93.8985 9.51206L91.7088 11.1834L94.2027 10.5033L93.9063 9.53813L95.2511 13.8907L91.7088 11.1834L88.1623 13.8907L89.5192 9.51206L85.9727 6.80047L90.3519 6.80492L91.7088 2.42188L93.0615 6.80492Z" fill="white"/>
</g>
</g>
<defs>
<clipPath id="clip0_1401_13313">
<rect width="100" height="17.14" fill="white"/>
</clipPath>
<clipPath id="clip1_1401_13313">
<rect width="99.9833" height="17.14" fill="white" transform="translate(0.0078125)"/>
</clipPath>
</defs>
</svg>