<?xml version="1.0" encoding="utf-8"?>
<!-- Generator: Adobe Illustrator 27.0.1, SVG Export Plug-In . SVG Version: 6.00 Build 0)  -->
<svg version="1.1" id="Layer_1" xmlns="http://www.w3.org/2000/svg" xmlns:xlink="http://www.w3.org/1999/xlink" x="0px" y="0px"
	 viewBox="0 0 2160 2160" style="enable-background:new 0 0 2160 2160;" xml:space="preserve">
<style type="text/css">
	.st0{fill:#0071CE;}
	.st1{fill:#E7004C;}
	.st2{fill:#FFFFFF;}
</style>
<g>
	<g>
		<g>
			<path class="st0" d="M1082.61,822.02c0,17.34-1.79,34.25-5.18,50.59c-5.5,26.58-15.27,51.62-28.56,74.34
				c-1.38,2.33-2.77,4.62-4.21,6.88c-24.38,38.93-59.29,70.7-100.8,91.06c-33.05,16.37-70.26,25.48-109.6,25.48H454
				c-88.67,0-166.59-46.5-210.49-116.54c-23.97-38.15-37.83-83.36-37.83-131.81c0-48.45,13.86-93.63,37.83-131.81
				C287.41,620.2,365.33,573.7,454,573.7h132.69v116.51H454c-72.74,0-131.69,58.98-131.69,131.81
				c0,72.87,58.95,131.81,131.69,131.81h380.26c59.98,0,110.6-40.06,126.5-94.99c3.39-11.69,5.22-24.04,5.22-36.83
				c0-9.24-0.94-18.26-2.77-26.96c-12.41-59.89-65.45-104.85-128.95-104.85h-73.59v206.62H644.13V573.7h190.13
				c51.5,0,99.42,15.71,139.07,42.7c28.62,19.29,52.91,44.43,71.33,73.81c3.05,4.84,5.91,9.77,8.61,14.8
				c13.35,24.82,22.59,52.22,26.77,81.22v0.03C1081.73,797.95,1082.61,809.86,1082.61,822.02z"/>
			<path class="st0" d="M1954.32,822.36v247.7H1837.8v-247.7c0-72.77-59.06-131.76-131.83-131.76
				c-72.77,0-131.83,58.99-131.83,131.76v247.7h-116.52v-247.7c0-72.77-59.06-131.76-131.83-131.76
				c-72.77,0-131.83,58.99-131.83,131.76v247.7h-116.52v-247.7c0-88.73,46.51-166.58,116.52-210.48
				c38.16-24.02,83.36-37.87,131.83-37.87c48.47,0,93.67,13.86,131.83,37.87c21.98,13.79,41.65,30.91,58.26,50.72
				c16.61-19.81,36.28-36.93,58.26-50.72c38.16-24.02,83.36-37.87,131.83-37.87c48.47,0,93.67,13.86,131.83,37.87
				C1907.82,655.77,1954.32,733.62,1954.32,822.36z"/>
		</g>
		
			<rect x="972.74" y="715.95" transform="matrix(0.7071 -0.7071 0.7071 0.7071 -265.4678 1004.0599)" class="st1" width="213.07" height="213.07"/>
	</g>
	<g>
		<rect x="296.62" y="1368.81" class="st2" width="31.5" height="25.96"/>
		<path class="st2" d="M374.7,1321.56H255.13c-4.28,0-7.87-0.63-10.76-1.89c-2.88-1.26-5.18-3.11-6.88-5.54
			c-1.7-2.44-2.88-5.4-3.55-8.88c-0.67-3.47-1-7.43-1-11.87v-11.76H205v14.86c0,8.73,1.08,16.31,3.21,22.74
			c2.15,6.43,5.18,11.75,9.1,15.97c3.92,4.21,8.54,7.36,13.86,9.43c5.32,2.07,11.17,3.11,17.53,3.11h157.5v-94.5h-31.5V1321.56z"/>
		<rect x="628.75" y="1189.13" class="st2" width="31.5" height="25.95"/>
		<path class="st2" d="M994.39,1321.56h-29.95h-0.21h-37.72c-0.01,0-0.01,0-0.01,0s-0.01,0-0.01,0h-4.21
			c-2.52,0-4.99-0.26-7.43-0.78c-2.44-0.52-4.62-1.37-6.54-2.55c-1.92-1.18-3.51-2.74-4.77-4.66c-1.25-1.92-1.88-4.29-1.88-7.1
			v-6.21c0-9.17-1.52-17.19-4.55-24.07c-3.03-6.88-7.17-12.57-12.43-17.08c-5.25-4.51-11.42-7.91-18.52-10.2
			c-7.1-2.29-14.78-3.44-23.07-3.44c-8.28,0-15.97,1.15-23.07,3.44c-7.09,2.29-13.27,5.69-18.52,10.2
			c-5.25,4.51-9.39,10.2-12.42,17.08c-3.03,6.88-4.55,14.9-4.55,24.07v6.21c0,2.81-0.63,5.18-1.89,7.1
			c-1.25,1.92-2.85,3.48-4.77,4.66c-1.93,1.18-4.14,2.03-6.66,2.55c-2.51,0.52-4.96,0.78-7.32,0.78h-4.21h-37.93
			c-0.01,0-0.01,0-0.01,0s-0.01,0-0.01,0h-4.21c-2.66,0-5.73,0.04-9.21,0.11c-3.47,0.07-6.91,0.11-10.31,0.11h-7.77v-1.11
			c6.51-6.36,10.76-12.35,12.76-17.97c2-5.62,3-11.24,3-16.86c0-7.1-1.08-13.2-3.22-18.3c-2.15-5.1-5.1-9.24-8.87-12.42
			c-3.77-3.18-8.36-5.51-13.75-6.99c-5.4-1.48-11.28-2.22-17.64-2.22h-90.51v3.99c3.99,3.84,7.51,9.02,10.54,15.53
			c3.04,6.5,5.92,13.23,8.65,20.18c2.74,6.95,5.54,13.61,8.43,19.96c2.88,6.36,6.17,11.39,9.87,15.09v0.89h-51.24c0,0,0,0,0,0
			c0,0,0,0,0,0h-37.93c0,0,0,0-0.01,0c0,0,0,0-0.01,0h-4.66c-2.66,0-5.4-0.22-8.21-0.67c-2.81-0.45-5.36-1.33-7.65-2.66
			c-2.29-1.33-4.14-3.18-5.54-5.55c-1.41-2.36-2.11-5.47-2.11-9.31v-50.14h-31.72v90.95c0,11.09-1.25,19.33-3.77,24.73
			c-2.51,5.4-6.95,8.1-13.31,8.1c-2.51,0-4.81-0.19-6.88-0.56c-2.07-0.37-3.99-1.15-5.77-2.33v22.85c2.81,1.18,5.96,2.07,9.43,2.66
			c3.48,0.59,6.91,0.89,10.31,0.89c7.99,0,14.64-1.37,19.97-4.1c5.33-2.74,9.57-6.59,12.75-11.54c3.18-4.95,5.47-10.87,6.88-17.75
			c1.4-6.88,2.1-14.53,2.1-22.96v-10.43h0.88c0.89,2.22,2.15,4.18,3.77,5.88c1.63,1.7,3.51,3.14,5.66,4.33
			c2.15,1.18,4.36,2.11,6.66,2.77c2.29,0.67,4.48,1,6.54,1h4.66c0,0,0,0,0.01,0c0,0,0,0,0.01,0h37.93c0,0,0,0,0,0s0,0,0,0H721.7
			c0.01,0,0.01,0,0.01,0c0.01,0,0.01,0,0.01,0h37.93h5.77c5.91,0,11.46-1.48,16.63-4.44c5.18-2.96,9.02-6.58,11.53-10.87
			c5.18,7.54,12.05,13.09,20.63,16.64c8.57,3.55,18.19,5.32,28.83,5.32c10.65,0,20.27-1.78,28.84-5.32
			c8.57-3.55,15.46-9.1,20.63-16.64c2.51,4.29,6.36,7.91,11.53,10.87c5.18,2.96,10.72,4.44,16.63,4.44h5.77c0.01,0,0.01,0,0.01,0
			s0.01,0,0.01,0h37.72h0.21h61.45v-158.61h-31.5V1321.56z M672.34,1297.38c-1.4,4.44-3.36,8.54-5.88,12.31
			c-2.51,3.77-5.58,6.91-9.21,9.43c-3.63,2.51-7.65,3.77-12.09,3.77c-2.96,0-5.62-1.07-7.99-3.21c-2.37-2.15-4.47-4.88-6.32-8.21
			c-1.85-3.33-3.51-6.99-4.99-10.98c-1.48-3.99-2.92-7.91-4.33-11.76c-1.4-3.84-2.77-7.36-4.1-10.54c-1.33-3.18-2.81-5.51-4.44-6.99
			h43.48c4.89,0,9.1,1.11,12.65,3.32c3.55,2.22,5.32,5.7,5.32,10.43C674.45,1288.8,673.75,1292.95,672.34,1297.38z M867.13,1311.69
			c-1.1,3.63-2.73,6.77-4.88,9.43c-2.15,2.66-4.81,4.77-7.99,6.32c-3.18,1.55-6.91,2.33-11.2,2.33c-4.28,0-8.02-0.78-11.2-2.33
			c-3.18-1.55-5.84-3.66-7.99-6.32c-2.14-2.66-3.77-5.8-4.88-9.43c-1.1-3.62-1.66-7.51-1.66-11.64c0-4.14,0.56-8.02,1.66-11.65
			c1.11-3.62,2.74-6.8,4.88-9.54c2.15-2.74,4.81-4.88,7.99-6.43c3.18-1.55,6.92-2.33,11.2-2.33c4.29,0,8.02,0.78,11.2,2.33
			c3.18,1.55,5.84,3.7,7.99,6.43c2.15,2.74,3.77,5.92,4.88,9.54c1.11,3.63,1.66,7.51,1.66,11.65
			C868.8,1304.18,868.25,1308.07,867.13,1311.69z"/>
		<rect x="1061.4" y="1189.13" class="st2" width="31.5" height="158.61"/>
		<rect x="1345.36" y="1189.13" class="st2" width="31.5" height="25.95"/>
		<path class="st2" d="M1400.48,1252.35c-5.25-4.58-11.42-7.99-18.52-10.2c-7.1-2.22-14.78-3.33-23.07-3.33
			c-8.28,0-15.93,1.18-22.96,3.55c-7.02,2.37-13.13,5.88-18.3,10.54c-5.18,4.66-9.2,10.35-12.09,17.08
			c-2.89,6.73-4.33,14.53-4.33,23.4c0,5.18,1.22,10.24,3.66,15.2c2.44,4.95,5.36,8.99,8.76,12.09v0.89H1234
			c-4.28,0-7.87-0.63-10.76-1.89c-2.88-1.26-5.18-3.11-6.88-5.54c-1.7-2.44-2.88-5.4-3.55-8.88c-0.67-3.47-1-7.43-1-11.87v-11.76
			h-27.96v14.86c0,8.73,1.08,16.31,3.21,22.74c2.15,6.43,5.18,11.75,9.1,15.97c3.92,4.21,8.54,7.36,13.86,9.43
			c5.33,2.07,11.17,3.11,17.53,3.11h131.32c8.28,0,15.97-1.11,23.07-3.33c7.1-2.22,13.28-5.58,18.52-10.09
			c5.25-4.51,9.39-10.16,12.42-16.97c3.04-6.8,4.55-14.79,4.55-23.96c0-9.17-1.52-17.15-4.55-23.96
			C1409.87,1262.63,1405.74,1256.94,1400.48,1252.35z M1382.96,1304.92c-1.1,3.55-2.73,6.66-4.88,9.32
			c-2.14,2.66-4.81,4.77-7.99,6.32c-3.18,1.55-6.91,2.33-11.2,2.33c-8.57,0-15.01-2.73-19.3-8.21c-4.29-5.47-6.44-12.57-6.44-21.3
			c0-4.14,0.55-8.02,1.66-11.64c1.11-3.63,2.73-6.8,4.88-9.54c2.15-2.74,4.81-4.88,7.99-6.44c3.18-1.55,6.91-2.33,11.2-2.33
			c4.29,0,8.02,0.78,11.2,2.33c3.18,1.55,5.84,3.7,7.99,6.44c2.15,2.73,3.77,5.91,4.88,9.54c1.11,3.62,1.66,7.51,1.66,11.64
			C1384.62,1297.53,1384.07,1301.38,1382.96,1304.92z"/>
		<path class="st2" d="M1949.61,1269.43c-3.03-6.8-7.17-12.49-12.42-17.08c-5.25-4.58-11.43-7.99-18.52-10.2
			c-7.1-2.22-14.79-3.33-23.07-3.33c-8.28,0-15.94,1.18-22.96,3.55c-7.02,2.37-13.12,5.88-18.3,10.54
			c-5.18,4.66-9.2,10.35-12.09,17.08c-2.88,6.73-4.33,14.53-4.33,23.4c0,5.18,1.23,10.24,3.66,15.2c2.44,4.95,5.36,8.99,8.77,12.09
			v0.89h-22.18h-0.22h-37.71c-0.01,0-0.01,0-0.02,0c-0.01,0-0.01,0-0.02,0h-4.66c-2.66,0-5.4-0.37-8.21-1.11
			c-2.81-0.74-5.36-1.88-7.65-3.44c-2.29-1.55-4.14-3.62-5.54-6.21c-1.4-2.59-2.11-5.81-2.11-9.65v-7.76
			c0-8.87-1.62-16.45-4.88-22.74c-3.25-6.28-7.65-11.42-13.2-15.42c-5.54-3.99-12.05-6.91-19.52-8.76
			c-7.46-1.85-15.41-2.77-23.85-2.77c-8.28,0-16.3,1.48-24.07,4.44c-7.76,2.96-15.08,6.88-21.96,11.76
			c-6.88,4.88-13.31,10.35-19.3,16.42c-5.99,6.06-11.42,12.2-16.3,18.41h-0.89v-35.27h-30.16v62.11h-22.85c0,0,0,0,0,0s0,0,0,0
			h-37.93c0,0,0,0-0.01,0c0,0,0,0-0.01,0h-4.66c-2.66,0-5.4-0.22-8.21-0.67c-2.81-0.45-5.36-1.33-7.65-2.66s-4.14-3.18-5.54-5.55
			c-1.41-2.36-2.11-5.47-2.11-9.31v-50.14h-31.72v90.95c0,11.09-1.25,19.33-3.77,24.73c-2.51,5.4-6.95,8.1-13.31,8.1
			c-2.51,0-4.81-0.19-6.88-0.56c-2.08-0.37-3.99-1.15-5.77-2.33v22.85c2.81,1.18,5.96,2.07,9.43,2.66
			c3.48,0.59,6.91,0.89,10.31,0.89c7.99,0,14.64-1.37,19.97-4.1c5.32-2.74,9.57-6.59,12.75-11.54c3.18-4.95,5.47-10.87,6.88-17.75
			c1.4-6.88,2.1-14.53,2.1-22.96v-10.43h0.88c0.89,2.22,2.15,4.18,3.77,5.88c1.63,1.7,3.51,3.14,5.66,4.33
			c2.15,1.18,4.36,2.11,6.66,2.77c2.29,0.67,4.47,1,6.54,1h4.66c0,0,0,0,0.01,0s0,0,0.01,0h37.93c0,0,0,0,0,0s0,0,0,0h191.44
			c1.48-2.07,2.66-4.51,3.55-7.32c0.89-2.81,1.48-5.03,1.78-6.65h0.88c0.89,2.22,2.18,4.18,3.89,5.88c1.7,1.7,3.62,3.14,5.76,4.33
			c2.15,1.18,4.36,2.11,6.66,2.77c2.29,0.67,4.47,1,6.54,1h4.66c0.01,0,0.01,0,0.02,0s0.01,0,0.02,0h37.71h0.22h67.44
			c8.28,0,15.97-1.11,23.07-3.33c7.1-2.22,13.27-5.58,18.52-10.09c5.25-4.51,9.39-10.16,12.42-16.97c3.03-6.8,4.55-14.79,4.55-23.96
			C1954.16,1284.22,1952.64,1276.24,1949.61,1269.43z M1730.52,1321.56h-104.26c0.29-0.59,1.44-2.26,3.43-4.99
			c2-2.74,4.66-6.03,7.99-9.87c3.33-3.84,7.21-7.91,11.65-12.2c4.43-4.29,9.31-8.28,14.64-11.98c5.32-3.7,11.02-6.73,17.09-9.1
			c6.06-2.36,12.35-3.55,18.85-3.55c9.47,0,16.94,1.7,22.41,5.1c5.47,3.4,8.21,9.76,8.21,19.08V1321.56z M1919.67,1304.92
			c-1.11,3.55-2.74,6.66-4.88,9.32c-2.14,2.66-4.81,4.77-7.99,6.32c-3.18,1.55-6.92,2.33-11.2,2.33c-8.58,0-15.01-2.73-19.3-8.21
			c-4.28-5.47-6.43-12.57-6.43-21.3c0-4.14,0.55-8.02,1.66-11.64c1.1-3.63,2.73-6.8,4.88-9.54c2.15-2.74,4.81-4.88,7.99-6.44
			c3.18-1.55,6.91-2.33,11.2-2.33c4.28,0,8.02,0.78,11.2,2.33c3.18,1.55,5.84,3.7,7.99,6.44c2.14,2.73,3.77,5.91,4.88,9.54
			c1.11,3.62,1.66,7.51,1.66,11.64C1921.33,1297.53,1920.78,1301.38,1919.67,1304.92z"/>
		<path class="st2" d="M205,1526.15v-0.33c0-33.25,25.06-60.49,60.98-60.49c22.06,0,35.26,7.35,46.12,18.05l-16.37,18.88
			c-9.02-8.19-18.21-13.2-29.91-13.2c-19.72,0-33.93,16.37-33.93,36.43v0.34c0,20.05,13.87,36.76,33.93,36.76
			c13.36,0,21.55-5.35,30.74-13.7l16.38,16.54c-12.04,12.87-25.4,20.89-47.96,20.89C230.56,1586.3,205,1559.74,205,1526.15z"/>
		<path class="st2" d="M340.19,1467.34h53.47c14.88,0,26.4,4.17,34.09,11.86c6.52,6.52,10.02,15.71,10.02,26.73v0.34
			c0,18.88-10.19,30.75-25.06,36.26l28.57,41.77h-30.08l-25.06-37.43h-20.22v37.43h-25.73V1467.34z M391.99,1524.15
			c12.53,0,19.71-6.68,19.71-16.54v-0.33c0-11.03-7.68-16.71-20.22-16.71h-25.57v33.59H391.99z"/>
		<path class="st2" d="M467.7,1467.34h88.23v22.89h-62.66v23.73h55.14v22.89h-55.14v24.56h63.49v22.89H467.7V1467.34z M522,1431.91
			l21.89,9.52l-22.72,16.71h-19.38L522,1431.91z"/>
		<path class="st2" d="M586.35,1467.34h45.61c36.76,0,62.16,25.23,62.16,58.15v0.34c0,32.92-25.39,58.48-62.16,58.48h-45.61V1467.34
			z M631.96,1561.07c21.06,0,35.26-14.2,35.26-34.92v-0.33c0-20.72-14.2-35.26-35.26-35.26h-19.88v70.51H631.96z"/>
		<path class="st2" d="M724.89,1467.34h25.73v116.96h-25.73V1467.34z"/>
		<path class="st2" d="M813.79,1491.06H778.2v-23.73h96.92v23.73h-35.59v93.24h-25.73V1491.06z"/>
		<path class="st2" d="M958.34,1467.34h45.61c36.76,0,62.16,25.23,62.16,58.15v0.34c0,32.92-25.39,58.48-62.16,58.48h-45.61V1467.34
			z M1003.96,1561.07c21.06,0,35.26-14.2,35.26-34.92v-0.33c0-20.72-14.2-35.26-35.26-35.26h-19.88v70.51H1003.96z"/>
		<path class="st2" d="M1093.88,1534.17v-66.83h25.73v66.17c0,19.05,9.52,28.9,25.23,28.9c15.71,0,25.23-9.52,25.23-28.07v-67h25.73
			v66c0,35.42-19.88,52.8-51.29,52.8C1113.09,1586.13,1093.88,1568.6,1093.88,1534.17z"/>
		<path class="st2" d="M1285.55,1467.34h27.74l30.75,49.46l30.75-49.46h27.73v116.96h-25.56v-76.36l-32.92,49.97h-0.67l-32.58-49.46
			v75.86h-25.23V1467.34z"/>
		<path class="st2" d="M1477.4,1466.5h23.73l50.13,117.79h-26.9l-10.69-26.23h-49.46l-10.69,26.23h-26.23L1477.4,1466.5z
			 M1504.47,1535.34l-15.54-37.93l-15.54,37.93H1504.47z"/>
		<path class="st2" d="M1576,1467.34h53.47c14.88,0,26.4,4.17,34.09,11.86c6.52,6.52,10.02,15.71,10.02,26.73v0.34
			c0,18.88-10.19,30.75-25.06,36.26l28.57,41.77h-30.08l-25.06-37.43h-20.22v37.43H1576V1467.34z M1627.8,1524.15
			c12.53,0,19.71-6.68,19.71-16.54v-0.33c0-11.03-7.68-16.71-20.22-16.71h-25.57v33.59H1627.8z"/>
		<path class="st2" d="M1698.33,1526.15v-0.33c0-33.25,26.23-60.49,62.33-60.49c36.09,0,61.99,26.9,61.99,60.15v0.34
			c0,33.25-26.23,60.48-62.33,60.48S1698.33,1559.4,1698.33,1526.15z M1795.74,1526.15v-0.33c0-20.05-14.7-36.76-35.42-36.76
			c-20.72,0-35.09,16.37-35.09,36.43v0.34c0,20.05,14.71,36.76,35.43,36.76C1781.37,1562.58,1795.74,1546.2,1795.74,1526.15z"/>
		<path class="st2" d="M1847.06,1526.15v-0.33c0-33.25,25.06-60.49,60.98-60.49c22.06,0,35.26,7.35,46.12,18.05l-16.37,18.88
			c-9.02-8.19-18.21-13.2-29.91-13.2c-19.72,0-33.93,16.37-33.93,36.43v0.34c0,20.05,13.87,36.76,33.93,36.76
			c13.36,0,21.55-5.35,30.74-13.7l16.38,16.54c-12.04,12.87-25.4,20.89-47.96,20.89C1872.62,1586.3,1847.06,1559.74,1847.06,1526.15
			z"/>
	</g>
</g>
</svg>
